<svg height="200" width="200" fill="#000000" xmlns="http://www.w3.org/2000/svg" data-name="Layer 1" viewBox="0 0 100 100" x="0px" y="0px"><title>Artboard 15</title><path d="M28.07,97.31a2.5,2.5,0,0,0,2.72-.54L48,79.63H81.39a13.06,13.06,0,0,0,13-13v-51a13.06,13.06,0,0,0-13-13H18.61a13.06,13.06,0,0,0-13,13v51a13.06,13.06,0,0,0,13,13h7.92V95A2.5,2.5,0,0,0,28.07,97.31ZM18.61,74.63a8.05,8.05,0,0,1-8-8v-51a8.05,8.05,0,0,1,8-8H81.39a8.05,8.05,0,0,1,8,8v51a8.05,8.05,0,0,1-8,8H46.92a2.5,2.5,0,0,0-1.77.73L31.53,89V77.13a2.5,2.5,0,0,0-2.5-2.5Z"/><path d="M81.55,42.32a2.5,2.5,0,0,0,0-2.9C71.39,25.13,60.77,17.89,50,17.89S28.61,25.13,18.45,39.42a2.5,2.5,0,0,0,0,2.9C28.61,56.6,39.23,63.85,50,63.85S71.39,56.6,81.55,42.32Zm-58-1.45c8.83-11.93,17.71-18,26.43-18s17.6,6,26.43,18c-8.83,11.93-17.71,18-26.43,18S32.4,52.8,23.57,40.87Z"/><path d="M51.47,53.76A13,13,0,0,0,50,27.89a2.5,2.5,0,0,0-2.5,2.5v6.28a1.7,1.7,0,0,1-1.69,1.69H39.53a2.5,2.5,0,0,0-2.5,2.5,13,13,0,0,0,13,13A13.16,13.16,0,0,0,51.47,53.76Zm-9-10.39h3.38a6.7,6.7,0,0,0,6.69-6.69V33.3A8,8,0,1,1,42.43,43.37Z"/></svg>